<?xml version="1.0" encoding="UTF-8"?>
<svg width="18px" height="18px" viewBox="0 0 18 18" version="1.1" xmlns="http://www.w3.org/2000/svg" xmlns:xlink="http://www.w3.org/1999/xlink">
    <!-- Generator: Sketch 64 (93537) - https://sketch.com -->
    <title>globe</title>
    <desc>Created with Sketch.</desc>
    <g id="Symbols" stroke="none" stroke-width="1" fill="none" fill-rule="evenodd">
        <g id="Icon/Outlined/globe" transform="translate(-3.000000, -3.000000)" fill="#00CCE0">
            <path d="M12,3.66666662 C7.40749756,3.66666662 3.66666662,7.40749756 3.66666662,12 C3.66666662,16.5925025 7.40749756,20.3333334 12,20.3333334 C16.5925025,20.3333334 20.3333334,16.5925025 20.3333334,12 C20.3333334,7.40749756 16.5925025,3.66666662 12,3.66666662 Z M12,5.3333333 C12.2069058,5.3333333 12.4336867,5.4180308 12.7226567,5.6930338 C13.011625,5.96803689 13.3253908,6.42906856 13.5950517,7.03580731 C13.8003308,7.49768414 13.9682633,8.06139806 14.11263,8.66666665 L9.88736982,8.66666665 C10.0317366,8.06139806 10.1996692,7.49768414 10.4049483,7.03580731 C10.6746083,6.42906856 10.9883758,5.96803689 11.2773433,5.6930338 C11.5663133,5.4180308 11.7930942,5.3333333 12,5.3333333 Z M9.04264324,6.0283203 C8.98836573,6.1374068 8.93236865,6.24429289 8.8815104,6.35872397 C8.58008023,7.03694164 8.34611298,7.82184023 8.1702474,8.66666665 L6.22688797,8.66666665 C6.88225481,7.53097948 7.8623984,6.61196847 9.04264324,6.0283203 Z M14.9573567,6.0283203 C16.1376017,6.61196847 17.117745,7.53097948 17.7731117,8.66666665 L15.8297525,8.66666665 C15.6538875,7.82184023 15.41992,7.03694164 15.11849,6.35872397 C15.0676317,6.24429289 15.0116342,6.1374068 14.9573567,6.0283203 Z M5.5514323,10.3333333 L7.91471348,10.3333333 C7.86355698,10.8724008 7.8333333,11.4280267 7.8333333,12 C7.8333333,12.5719733 7.86355698,13.1275992 7.91471348,13.6666667 L5.5514323,13.6666667 C5.41462838,13.1331567 5.3333333,12.577185 5.3333333,12 C5.3333333,11.422815 5.41462838,10.8668433 5.5514323,10.3333333 Z M9.59765624,10.3333333 L14.4023433,10.3333333 C14.4603533,10.8688242 14.5,11.4221867 14.5,12 C14.5,12.5778133 14.4603533,13.1311758 14.4023433,13.6666667 L9.59765624,13.6666667 C9.53964649,13.1311758 9.49999999,12.5778133 9.49999999,12 C9.49999999,11.4221867 9.53964649,10.8688242 9.59765624,10.3333333 Z M16.0852867,10.3333333 L18.4485675,10.3333333 C18.5853717,10.8668433 18.6666667,11.422815 18.6666667,12 C18.6666667,12.577185 18.5853717,13.1331567 18.4485675,13.6666667 L16.0852867,13.6666667 C16.1364434,13.1275992 16.1666667,12.5719733 16.1666667,12 C16.1666667,11.4280267 16.1364434,10.8724008 16.0852867,10.3333333 Z M6.22688797,15.3333333 L8.1702474,15.3333333 C8.34611298,16.17816 8.58008023,16.9630584 8.8815104,17.6412759 C8.93236865,17.7557067 8.98836573,17.8625934 9.04264324,17.97168 C7.8623984,17.3880317 6.88225481,16.4690209 6.22688797,15.3333333 Z M9.88736982,15.3333334 L14.11263,15.3333334 C13.9682633,15.9386017 13.8003308,16.5023159 13.5950517,16.9641925 C13.3253908,17.5709317 13.0116242,18.0319634 12.7226567,18.3069659 C12.4336875,18.5819692 12.2069058,18.6666667 12,18.6666667 C11.7930942,18.6666667 11.5663133,18.5819692 11.2773433,18.3069659 C10.988375,18.0319634 10.6746083,17.5709317 10.4049483,16.9641925 C10.1996692,16.5023159 10.0317366,15.9386017 9.88736982,15.3333334 Z M15.8297525,15.3333333 L17.7731117,15.3333333 C17.117745,16.4690209 16.1376017,17.3880317 14.9573567,17.97168 C15.0116342,17.8625934 15.0676317,17.7557067 15.11849,17.6412759 C15.41992,16.9630584 15.6538875,16.17816 15.8297525,15.3333333 Z" id="globe"></path>
        </g>
    </g>
</svg>